<?xml version="1.0" encoding="UTF-8" standalone="no"?><!DOCTYPE svg PUBLIC "-//W3C//DTD SVG 1.1//EN" "http://www.w3.org/Graphics/SVG/1.1/DTD/svg11.dtd"><svg width="100%" height="100%" viewBox="0 0 2017 498" version="1.1" xmlns="http://www.w3.org/2000/svg" xmlns:xlink="http://www.w3.org/1999/xlink" xml:space="preserve" xmlns:serif="http://www.serif.com/" style="fill-rule:evenodd;clip-rule:evenodd;stroke-linejoin:round;stroke-miterlimit:2;"><rect id="Page-1" serif:id="Page 1" x="0" y="0" width="2016.05" height="497.533" style="fill:none;"/><g id="Layer-1" serif:id="Layer 1"><path d="M259.537,225.616l19.834,61.046l23.391,-69.746l-19.758,-61.254l-23.467,69.954Z" style="fill:#4d7397;fill-rule:nonzero;"/><path d="M47.363,121.075l51.929,0l32.433,101.004l-25.592,77.854l-58.77,-178.858Z" style="fill:#4d7397;fill-rule:nonzero;"/><path d="M15.043,472.373l114.916,-351.283l57.038,-0l33.508,103.137l-23.417,69.825l-37.833,-117.308l-97.154,295.629l-47.058,-0Z" style="fill:#122c46;fill-rule:nonzero;"/><path d="M393.351,367.575l-60.771,-189.27l-63.475,189.27l-48.304,0l-6.446,-20.004l23.479,-70.008l8.496,26.146l61.258,-182.617l56.696,0l80.996,246.483l-51.929,0Z" style="fill:#122c46;fill-rule:nonzero;"/><path d="M305.655,367.555l-6.867,-21.137l23.317,-69.53l11.288,35.017l97.158,-295.629l47.05,-0l-114.913,351.279l-57.033,0Z" style="fill:#4d7397;fill-rule:nonzero;"/><path d="M271.842,121.075l-48.296,0l-63.475,189.271l-10.95,-34.108l-25.383,77.25l4.625,14.066l56.704,0l61.254,-182.616l13.217,40.679l23.466,-69.954l-11.162,-34.588Z" style="fill:#4d7397;fill-rule:nonzero;"/><path d="M669.544,300.766l-0.188,-94.646l-46.95,78.871l-8.537,-0l-46.954,-78.313l-0,94.088l-17.813,-0l0,-129.905l15.217,0l54.191,91.305l53.442,-91.305l15.217,0l0.187,129.905l-17.812,-0Z" style="fill:#122c46;fill-rule:nonzero;"/><path d="M848.434,284.62l-0,16.146l-94.271,-0l-0,-129.905l91.675,0l-0,16.146l-73.121,0l0,39.896l65.138,0l-0,15.779l-65.138,0l0,41.938l75.717,-0Z" style="fill:#122c46;fill-rule:nonzero;"/><path d="M932.129,187.008l-44.533,0l-0,-16.146l107.446,0l-0,16.146l-44.542,0l0,113.758l-18.371,0l0,-113.758Z" style="fill:#122c46;fill-rule:nonzero;"/><path d="M1200.29,170.862l18.554,0l0,113.759l70.334,-0l-0,16.145l-88.888,0l0,-129.904Z" style="fill:#122c46;fill-rule:nonzero;"/><path d="M1526.16,170.862l-43.058,129.904l-25.609,0l-32.108,-96.133l-32.654,96.133l-25.8,0l-43.05,-129.904l25.05,0l32.292,98.725l33.587,-98.725l22.271,0l32.846,99.284l33.221,-99.284l23.012,0Z" style="fill:#4d7397;fill-rule:nonzero;"/><path d="M1075.77,170.862l-58.829,129.904l19.117,0l20.812,-47.325l-0.029,0l28.021,-63.65l28.021,63.65l-0.033,0l6.529,14.85l14.291,32.475l19.484,0l-59.013,-129.904l-18.371,0Z" style="fill:#122c46;fill-rule:nonzero;"/><path d="M1059.37,250.599l50.975,-0l-25.487,47.821l-25.488,-47.821Z" style="fill:#122c46;fill-rule:nonzero;"/><path d="M1633.42,170.862l-23.754,0l-58.454,129.904l24.863,0l20.975,-48.991l24.304,-56.788l24.496,56.788l-0.134,-0l8.117,18.929l12.992,30.062l25.237,0l-58.642,-129.904Z" style="fill:#4d7397;fill-rule:nonzero;"/><path d="M1599.29,251.775l44.196,-0l-22.121,42.554l-22.075,-42.554Z" style="fill:#4d7397;fill-rule:nonzero;"/><path d="M1848.32,170.862l-56.6,129.904l-23.754,0l-56.788,-129.904l26.171,0l43.238,100.213l43.612,-100.213l24.121,0Z" style="fill:#4d7397;fill-rule:nonzero;"/><path d="M1987.32,280.539l0,20.225l-97.429,-0l-0,-129.9l94.833,-0l0,20.225l-70.712,-0l-0,33.779l62.729,-0l-0,19.854l-62.729,-0l-0,35.817l73.308,-0Z" style="fill:#4d7397;fill-rule:nonzero;"/></g></svg>