<?xml version="1.0" encoding="UTF-8" standalone="no"?><!DOCTYPE svg PUBLIC "-//W3C//DTD SVG 1.1//EN" "http://www.w3.org/Graphics/SVG/1.1/DTD/svg11.dtd"><svg width="100%" height="100%" viewBox="0 0 1719 951" version="1.1" xmlns="http://www.w3.org/2000/svg" xmlns:xlink="http://www.w3.org/1999/xlink" xml:space="preserve" xmlns:serif="http://www.serif.com/" style="fill-rule:evenodd;clip-rule:evenodd;stroke-linejoin:round;stroke-miterlimit:2;"><rect id="Page-2" serif:id="Page 2" x="0" y="0" width="1718.16" height="950.561" style="fill:none;"/><g id="Layer-1" serif:id="Layer 1"><path d="M829.059,285.938l19.833,61.046l23.392,-69.746l-19.758,-61.25l-23.467,69.95Z" style="fill:#4d7397;fill-rule:nonzero;"/><path d="M616.884,181.397l51.93,-0l32.433,101l-25.592,77.858l-58.771,-178.858Z" style="fill:#4d7397;fill-rule:nonzero;"/><path d="M584.564,532.695l114.917,-351.283l57.038,-0l33.508,103.133l-23.417,69.829l-37.833,-117.308l-97.154,295.629l-47.059,0Z" style="fill:#fff;fill-rule:nonzero;"/><path d="M962.872,427.898l-60.77,-189.275l-63.475,189.275l-48.305,-0l-6.445,-20.004l23.479,-70.009l8.496,26.15l61.258,-182.621l56.696,0l80.996,246.484l-51.93,-0Z" style="fill:#fff;fill-rule:nonzero;"/><path d="M875.177,427.882l-6.867,-21.138l23.317,-69.533l11.287,35.021l97.159,-295.634l47.05,0l-114.913,351.284l-57.033,-0Z" style="fill:#4d7397;fill-rule:nonzero;"/><path d="M841.364,181.397l-48.296,-0l-63.475,189.271l-10.95,-34.109l-25.384,77.25l4.625,14.071l56.705,0l61.254,-182.621l13.216,40.68l23.467,-69.95l-11.162,-34.592Z" style="fill:#4d7397;fill-rule:nonzero;"/><path d="M217.177,744.691l-0.187,-94.646l-46.95,78.871l-8.538,-0l-46.954,-78.313l0,94.088l-17.812,-0l-0,-129.904l15.216,-0l54.192,91.304l53.442,-91.304l15.216,-0l0.188,129.904l-17.813,-0Z" style="fill:#fff;fill-rule:nonzero;"/><path d="M396.067,728.545l0,16.146l-94.27,-0l-0,-129.904l91.675,-0l-0,16.145l-73.121,0l-0,39.896l65.137,0l0,15.779l-65.137,0l-0,41.938l75.716,-0Z" style="fill:#fff;fill-rule:nonzero;"/><path d="M479.763,630.933l-44.534,0l0,-16.146l107.446,0l0,16.146l-44.541,0l-0,113.759l-18.371,-0l-0,-113.759Z" style="fill:#fff;fill-rule:nonzero;"/><path d="M747.923,614.787l18.554,0l-0,113.759l70.333,-0l0,16.146l-88.887,-0l-0,-129.905Z" style="fill:#fff;fill-rule:nonzero;"/><path d="M1073.79,614.787l-43.059,129.905l-25.608,-0l-32.108,-96.134l-32.655,96.134l-25.8,-0l-43.05,-129.905l25.05,0l32.292,98.725l33.588,-98.725l22.27,0l32.846,99.284l33.221,-99.284l23.013,0Z" style="fill:#4d7397;fill-rule:nonzero;"/><path d="M632.489,633.717l27.992,63.65l0.033,-0l-28.025,-63.65Z" style="fill:#fff;fill-rule:nonzero;"/><path d="M604.47,697.368l0.029,0l27.992,-63.65l-28.021,63.65Z" style="fill:#fff;fill-rule:nonzero;"/><path d="M623.399,614.787l-58.829,129.905l19.117,-0l20.812,-47.325l-0.029,-0l28.021,-63.65l28.021,63.65l-0.034,-0l6.529,14.85l14.292,32.475l19.483,-0l-59.012,-129.905l-18.371,0Z" style="fill:#fff;fill-rule:nonzero;"/><path d="M607.001,694.524l50.975,-0l-25.488,47.82l-25.487,-47.82Z" style="fill:#fff;fill-rule:nonzero;"/><path d="M1181.06,614.787l-23.754,0l-58.454,129.905l24.862,-0l20.975,-48.992l24.304,-56.788l24.496,56.788l-0.133,-0l8.116,18.929l12.992,30.063l25.238,-0l-58.642,-129.905Z" style="fill:#4d7397;fill-rule:nonzero;"/><path d="M1146.92,695.7l44.196,-0l-22.121,42.554l-22.075,-42.554Z" style="fill:#4d7397;fill-rule:nonzero;"/><path d="M1395.95,614.787l-56.6,129.905l-23.755,-0l-56.787,-129.905l26.171,0l43.237,100.213l43.613,-100.213l24.121,0Z" style="fill:#4d7397;fill-rule:nonzero;"/><path d="M1534.95,724.464l-0,20.225l-97.429,-0l-0,-129.9l94.833,-0l-0,20.225l-70.713,-0l0,33.779l62.73,-0l-0,19.854l-62.73,-0l0,35.817l73.309,-0Z" style="fill:#4d7397;fill-rule:nonzero;"/></g></svg>