<?xml version="1.0" encoding="UTF-8" standalone="no"?><!DOCTYPE svg PUBLIC "-//W3C//DTD SVG 1.1//EN" "http://www.w3.org/Graphics/SVG/1.1/DTD/svg11.dtd"><svg width="100%" height="100%" viewBox="0 0 2028 541" version="1.1" xmlns="http://www.w3.org/2000/svg" xmlns:xlink="http://www.w3.org/1999/xlink" xml:space="preserve" xmlns:serif="http://www.serif.com/" style="fill-rule:evenodd;clip-rule:evenodd;stroke-linejoin:round;stroke-miterlimit:2;"><rect id="Page-2" serif:id="Page 2" x="0" y="0" width="2027.83" height="540.892" style="fill:none;"/><g id="Layer-1" serif:id="Layer 1"><path d="M271.016,249.355l19.833,61.046l23.392,-69.746l-19.758,-61.25l-23.467,69.95Z" style="fill:#4d7397;fill-rule:nonzero;"/><path d="M58.841,144.814l51.93,-0l32.433,101l-25.592,77.858l-58.771,-178.858Z" style="fill:#4d7397;fill-rule:nonzero;"/><path d="M26.521,496.112l114.917,-351.283l57.038,-0l33.508,103.133l-23.417,69.829l-37.833,-117.308l-97.154,295.629l-47.059,0Z" style="fill:#fff;fill-rule:nonzero;"/><path d="M404.829,391.315l-60.771,-189.275l-63.475,189.275l-48.304,-0l-6.446,-20.004l23.48,-70.009l8.495,26.15l61.259,-182.621l56.696,0l80.995,246.484l-51.929,-0Z" style="fill:#fff;fill-rule:nonzero;"/><path d="M317.134,391.298l-6.867,-21.137l23.317,-69.533l11.287,35.02l97.159,-295.633l47.05,0l-114.913,351.283l-57.033,0Z" style="fill:#4d7397;fill-rule:nonzero;"/><path d="M283.321,144.814l-48.296,-0l-63.475,189.271l-10.95,-34.109l-25.384,77.25l4.625,14.071l56.705,0l61.254,-182.621l13.216,40.68l23.467,-69.95l-11.162,-34.592Z" style="fill:#4d7397;fill-rule:nonzero;"/><path d="M659.937,337.308l-0.188,-94.646l-46.95,78.871l-8.537,0l-46.955,-78.312l0,94.087l-17.812,0l-0,-129.904l15.217,0l54.191,91.304l53.442,-91.304l15.217,0l0.187,129.904l-17.812,0Z" style="fill:#fff;fill-rule:nonzero;"/><path d="M838.827,321.162l-0,16.146l-94.271,0l-0,-129.904l91.675,0l-0,16.146l-73.121,-0l-0,39.896l65.137,-0l0,15.779l-65.137,-0l-0,41.937l75.717,0Z" style="fill:#fff;fill-rule:nonzero;"/><path d="M922.522,223.551l-44.533,-0l-0,-16.146l107.445,-0l0,16.146l-44.541,-0l-0,113.758l-18.371,0l-0,-113.758Z" style="fill:#fff;fill-rule:nonzero;"/><path d="M1190.68,207.405l18.554,-0l0,113.758l70.333,0l0,16.146l-88.887,0l-0,-129.904Z" style="fill:#fff;fill-rule:nonzero;"/><path d="M1516.55,207.405l-43.059,129.904l-25.608,0l-32.108,-96.133l-32.654,96.133l-25.8,0l-43.05,-129.904l25.05,-0l32.291,98.725l33.588,-98.725l22.271,-0l32.845,99.283l33.221,-99.283l23.013,-0Z" style="fill:#4d7397;fill-rule:nonzero;"/><path d="M1075.25,226.334l27.992,63.65l0.033,0l-28.025,-63.65Z" style="fill:#fff;fill-rule:nonzero;"/><path d="M1047.23,289.986l0.029,-0l27.992,-63.65l-28.021,63.65Z" style="fill:#fff;fill-rule:nonzero;"/><path d="M1066.16,207.405l-58.829,129.904l19.117,0l20.812,-47.325l-0.029,0l28.021,-63.65l28.021,63.65l-0.034,0l6.53,14.85l14.291,32.475l19.484,0l-59.013,-129.904l-18.371,-0Z" style="fill:#fff;fill-rule:nonzero;"/><path d="M1049.76,287.141l50.975,0l-25.488,47.821l-25.487,-47.821Z" style="fill:#fff;fill-rule:nonzero;"/><path d="M1623.82,207.405l-23.754,-0l-58.454,129.904l24.862,0l20.975,-48.992l24.304,-56.787l24.496,56.787l-0.133,0l8.117,18.93l12.991,30.062l25.238,0l-58.642,-129.904Z" style="fill:#4d7397;fill-rule:nonzero;"/><path d="M1589.68,288.317l44.196,0l-22.121,42.555l-22.075,-42.555Z" style="fill:#4d7397;fill-rule:nonzero;"/><path d="M1838.71,207.405l-56.6,129.904l-23.754,0l-56.788,-129.904l26.171,-0l43.237,100.212l43.613,-100.212l24.121,-0Z" style="fill:#4d7397;fill-rule:nonzero;"/><path d="M1977.71,317.081l-0,20.225l-97.429,0l-0,-129.9l94.833,0l0,20.225l-70.712,0l-0,33.779l62.729,0l-0,19.854l-62.729,0l-0,35.817l73.308,0Z" style="fill:#4d7397;fill-rule:nonzero;"/></g></svg>