<?xml version="1.0" encoding="UTF-8" standalone="no"?><!DOCTYPE svg PUBLIC "-//W3C//DTD SVG 1.1//EN" "http://www.w3.org/Graphics/SVG/1.1/DTD/svg11.dtd"><svg width="100%" height="100%" viewBox="0 0 1151 1160" version="1.1" xmlns="http://www.w3.org/2000/svg" xmlns:xlink="http://www.w3.org/1999/xlink" xml:space="preserve" xmlns:serif="http://www.serif.com/" style="fill-rule:evenodd;clip-rule:evenodd;stroke-linejoin:round;stroke-miterlimit:2;"><rect id="Page-6" serif:id="Page 6" x="0" y="0" width="1150.99" height="1159.91" style="fill:none;"/><g id="Layer-1" serif:id="Layer 1"><path d="M613.999,511.982l47.404,145.904l55.908,-166.7l-47.229,-146.396l-56.083,167.192Z" style="fill-rule:nonzero;"/><path d="M109.954,271.962l124.109,-0l77.525,241.408l-61.167,186.079l-140.467,-427.487Z" style="fill-rule:nonzero;"/><path d="M32.704,1111.59l274.659,-839.592l136.329,0l80.083,246.5l-55.962,166.888l-90.421,-280.375l-232.217,706.579l-112.471,-0Z" style="fill-rule:nonzero;"/><path d="M936.896,861.118l-145.246,-452.375l-151.717,452.375l-115.45,-0l-15.408,-47.813l56.112,-167.32l20.313,62.491l146.412,-436.475l135.517,0l193.575,589.117l-124.108,-0Z" style="fill-rule:nonzero;"/><path d="M727.293,861.077l-16.417,-50.521l55.742,-166.187l26.975,83.696l232.216,-706.58l112.45,0l-274.637,839.592l-136.329,0Z" style="fill-rule:nonzero;"/><path d="M646.478,271.962l-115.433,-0l-151.708,452.375l-26.175,-81.517l-60.663,184.629l11.054,33.629l135.521,0l146.404,-436.475l31.588,97.221l56.083,-167.191l-26.671,-82.671Z" style="fill-rule:nonzero;"/></g></svg>